<?xml version="1.0" encoding="UTF-8" standalone="no"?>
<!-- Created with Inkscape (http://www.inkscape.org/) -->

<svg
   xmlns:dc="http://purl.org/dc/elements/1.1/"
   xmlns:cc="http://creativecommons.org/ns#"
   xmlns:rdf="http://www.w3.org/1999/02/22-rdf-syntax-ns#"
   xmlns:svg="http://www.w3.org/2000/svg"
   xmlns="http://www.w3.org/2000/svg"
   xmlns:sodipodi="http://sodipodi.sourceforge.net/DTD/sodipodi-0.dtd"
   xmlns:inkscape="http://www.inkscape.org/namespaces/inkscape"
   width="14.573536mm"
   height="9.0285511mm"
   viewBox="0 0 14.573536 9.0285511"
   version="1.1"
   id="svg8"
   inkscape:version="0.92.1 r15371"
   sodipodi:docname="logo.svg">
  <defs
     id="defs2" />
  <sodipodi:namedview
     id="base"
     pagecolor="#ffffff"
     bordercolor="#666666"
     borderopacity="1.0"
     inkscape:pageopacity="0.0"
     inkscape:pageshadow="2"
     inkscape:zoom="11.313709"
     inkscape:cx="54.719278"
     inkscape:cy="30.038055"
     inkscape:document-units="mm"
     inkscape:current-layer="g3706"
     showgrid="false"
     fit-margin-top="0"
     fit-margin-left="0"
     fit-margin-right="0"
     fit-margin-bottom="0"
     inkscape:window-width="1680"
     inkscape:window-height="1027"
     inkscape:window-x="-8"
     inkscape:window-y="-8"
     inkscape:window-maximized="1" />
  <metadata
     id="metadata5">
    <rdf:RDF>
      <cc:Work
         rdf:about="">
        <dc:format>image/svg+xml</dc:format>
        <dc:type
           rdf:resource="http://purl.org/dc/dcmitype/StillImage" />
        <dc:title></dc:title>
      </cc:Work>
    </rdf:RDF>
  </metadata>
  <g
     inkscape:label="Layer 1"
     inkscape:groupmode="layer"
     id="layer1"
     transform="translate(-132.29142,-154.09604)">
    <g
       id="g3706"
       transform="matrix(1.1059283,0,0,0.90610334,-59.90206,-29.81963)">
      <path
         style="fill:#e7e7e7;stroke-width:0.02690423"
         d="m 137.58493,160.38715 c 0.0247,-0.007 0.0651,-0.007 0.0898,0 0.0247,0.007 0.004,0.0129 -0.0449,0.0129 -0.0494,0 -0.0696,-0.006 -0.0449,-0.0129 z m 0.0144,-0.42308 c 0.0185,-0.008 0.0406,-0.007 0.0492,0.002 0.009,0.009 -0.007,0.016 -0.0337,0.0148 -0.0299,-0.001 -0.036,-0.008 -0.0155,-0.0171 z m -5.02312,-0.84134 c -0.0176,-0.0233 -0.0262,-0.0423 -0.0191,-0.0423 0.007,0 0.0272,0.019 0.0448,0.0423 0.0176,0.0233 0.0262,0.0423 0.0191,0.0423 -0.007,0 -0.0272,-0.0191 -0.0448,-0.0423 z m 6.75949,-0.40914 c 0.0255,-0.031 0.0522,-0.0564 0.0592,-0.0564 0.007,0 -0.008,0.0254 -0.0336,0.0564 -0.0255,0.031 -0.0522,0.0564 -0.0593,0.0564 -0.007,0 0.008,-0.0254 0.0336,-0.0564 z m -7.24689,-0.12698 c -0.0176,-0.0233 -0.0262,-0.0423 -0.0191,-0.0423 0.007,0 0.0272,0.019 0.0448,0.0423 0.0176,0.0233 0.0262,0.0423 0.0191,0.0423 -0.007,0 -0.0272,-0.019 -0.0448,-0.0423 z m 11.05631,0.003 c 0,-0.006 0.0202,-0.0281 0.0449,-0.0494 0.0407,-0.0351 0.0416,-0.0341 0.01,0.0106 -0.0335,0.047 -0.0546,0.0619 -0.0546,0.0387 z m -10.0302,-0.17276 c -0.0176,-0.0233 -0.0262,-0.0423 -0.0191,-0.0423 0.007,0 0.0272,0.019 0.0448,0.0423 0.0176,0.0233 0.0262,0.0423 0.0191,0.0423 -0.007,0 -0.0272,-0.0191 -0.0448,-0.0423 z m 8.97844,0.0317 c 0,-0.006 0.0202,-0.0281 0.0449,-0.0494 0.0407,-0.0351 0.0416,-0.0341 0.01,0.0107 -0.0335,0.047 -0.0546,0.0619 -0.0546,0.0387 z m -9.33758,-0.4267 c -0.0176,-0.0233 -0.0262,-0.0423 -0.0191,-0.0423 0.007,0 0.0272,0.019 0.0448,0.0423 0.0176,0.0233 0.0262,0.0423 0.0191,0.0423 -0.007,0 -0.0272,-0.0191 -0.0448,-0.0423 z m 9.69672,0.0317 c 0,-0.006 0.0202,-0.0281 0.0449,-0.0494 0.0407,-0.0351 0.0416,-0.0341 0.01,0.0106 -0.0335,0.047 -0.0546,0.0619 -0.0546,0.0387 z m -9.72237,-2.45487 c 0,-0.006 0.0202,-0.0281 0.0449,-0.0494 0.0407,-0.0351 0.0416,-0.0341 0.01,0.0107 -0.0335,0.047 -0.0546,0.0619 -0.0546,0.0387 z m 9.74802,-0.0317 c -0.0176,-0.0233 -0.0262,-0.0423 -0.0191,-0.0423 0.007,0 0.0272,0.019 0.0448,0.0423 0.0176,0.0233 0.0262,0.0423 0.0191,0.0423 -0.007,0 -0.0272,-0.019 -0.0448,-0.0423 z m -6.02838,-0.0564 c 0.0331,-0.0388 0.066,-0.0705 0.0731,-0.0705 0.007,0 -0.0143,0.0317 -0.0474,0.0705 -0.0331,0.0388 -0.066,0.0705 -0.0731,0.0705 -0.007,0 0.0143,-0.0317 0.0474,-0.0705 z m 1.12391,-0.0616 c 0.0185,-0.008 0.0406,-0.007 0.0492,0.002 0.009,0.009 -0.007,0.016 -0.0337,0.0148 -0.0299,-0.001 -0.036,-0.008 -0.0155,-0.017 z m -4.48441,-0.24533 c 0,-0.006 0.0202,-0.0281 0.0449,-0.0494 0.0407,-0.0351 0.0416,-0.0341 0.01,0.0106 -0.0335,0.047 -0.0546,0.0619 -0.0546,0.0387 z m 9.02974,-0.0317 c -0.0176,-0.0233 -0.0262,-0.0423 -0.0191,-0.0423 0.007,0 0.0272,0.019 0.0448,0.0423 0.0176,0.0233 0.0262,0.0423 0.0191,0.0423 -0.007,0 -0.0272,-0.019 -0.0448,-0.0423 z m -10.0815,-0.10942 c 0,-0.006 0.0202,-0.0281 0.0449,-0.0494 0.0407,-0.0351 0.0416,-0.0341 0.01,0.0107 -0.0335,0.047 -0.0546,0.0619 -0.0546,0.0387 z m 11.10761,-0.0599 c -0.0176,-0.0233 -0.0262,-0.0423 -0.0191,-0.0423 0.007,0 0.0272,0.0191 0.0448,0.0423 0.0176,0.0233 0.0262,0.0423 0.0191,0.0423 -0.007,0 -0.0272,-0.019 -0.0448,-0.0423 z m -0.4874,-0.53612 c -0.0176,-0.0233 -0.0262,-0.0423 -0.0191,-0.0423 0.007,0 0.0272,0.019 0.0448,0.0423 0.0176,0.0233 0.0262,0.0423 0.0191,0.0423 -0.007,0 -0.0272,-0.019 -0.0448,-0.0423 z m -5.09812,-0.37295 c 0.039,-0.006 0.0967,-0.006 0.12826,3.8e-4 0.0316,0.007 -3.5e-4,0.012 -0.0709,0.0118 -0.0705,-2.1e-4 -0.0964,-0.006 -0.0574,-0.0122 z m 0.0253,-0.90215 c 0.0247,-0.007 0.0651,-0.007 0.0898,0 0.0247,0.007 0.004,0.0129 -0.0449,0.0129 -0.0494,0 -0.0696,-0.006 -0.0449,-0.0129 z"
         id="path3720"
         inkscape:connector-curvature="0" />
      <path
         style="fill:#d0d0d0;stroke-width:0.02690423"
         d="m 137.13761,161.29026 c 0.0185,-0.008 0.0406,-0.007 0.0492,0.002 0.009,0.009 -0.007,0.016 -0.0337,0.0148 -0.0299,-0.001 -0.036,-0.008 -0.0155,-0.0171 z m 0.94915,0 c 0.0185,-0.008 0.0406,-0.007 0.0492,0.002 0.009,0.009 -0.007,0.016 -0.0337,0.0148 -0.0299,-0.001 -0.036,-0.008 -0.0155,-0.0171 z m -0.65575,-0.90311 c 0.0247,-0.007 0.0651,-0.007 0.0898,0 0.0247,0.007 0.004,0.0129 -0.0449,0.0129 -0.0494,0 -0.0696,-0.006 -0.0449,-0.0129 z m 0.30784,0 c 0.0247,-0.007 0.0651,-0.007 0.0898,0 0.0247,0.007 0.004,0.0129 -0.0449,0.0129 -0.0494,0 -0.0696,-0.006 -0.0449,-0.0129 z m 4.94455,-1.28918 c 0,-0.006 0.0202,-0.0281 0.0449,-0.0494 0.0407,-0.0351 0.0416,-0.0341 0.01,0.0106 -0.0335,0.047 -0.0546,0.062 -0.0546,0.0387 z m -10.19938,-0.0811 -0.0489,-0.0635 0.0577,0.0538 c 0.0542,0.0505 0.0694,0.0732 0.0489,0.0732 -0.005,0 -0.0308,-0.0286 -0.0577,-0.0635 z m -0.31822,-0.34566 c -0.0176,-0.0233 -0.0262,-0.0423 -0.0191,-0.0423 0.007,0 0.0272,0.019 0.0448,0.0423 0.0176,0.0233 0.0262,0.0423 0.0191,0.0423 -0.007,0 -0.0272,-0.0191 -0.0448,-0.0423 z m 7.23406,-0.0248 c 0,-0.006 0.0202,-0.0281 0.0449,-0.0494 0.0407,-0.0351 0.0416,-0.0341 0.01,0.0106 -0.0335,0.047 -0.0546,0.062 -0.0546,0.0387 z m 0.67466,-1.85166 c 0,-0.0854 0.005,-0.12027 0.0107,-0.0776 0.006,0.0427 0.006,0.11251 0,0.15519 -0.006,0.0427 -0.0107,0.008 -0.0107,-0.0776 z m -7.96003,-1.81653 c 0,-0.006 0.0202,-0.0281 0.0449,-0.0494 0.0407,-0.0351 0.0416,-0.0341 0.01,0.0107 -0.0335,0.047 -0.0546,0.0619 -0.0546,0.0387 z m 7.23268,-0.0952 -0.0884,-0.10581 0.0962,0.0972 c 0.0529,0.0535 0.0962,0.1011 0.0962,0.10581 0,0.0215 -0.0217,0.001 -0.10399,-0.0972 z m 3.72102,0.0353 c -0.0176,-0.0233 -0.0262,-0.0423 -0.0191,-0.0423 0.007,0 0.0272,0.019 0.0448,0.0423 0.0176,0.0233 0.0262,0.0423 0.0191,0.0423 -0.007,0 -0.0272,-0.019 -0.0448,-0.0423 z m -7.61885,-0.22228 c 0,-0.006 0.0202,-0.0281 0.0449,-0.0494 0.0407,-0.0351 0.0416,-0.0341 0.01,0.0107 -0.0335,0.047 -0.0546,0.0619 -0.0546,0.0387 z m 7.29576,-0.13748 -0.0489,-0.0635 0.0577,0.0538 c 0.0317,0.0296 0.0577,0.0581 0.0577,0.0635 0,0.0226 -0.0206,0.006 -0.0666,-0.0538 z m -10.24582,-0.004 c 0,-0.006 0.0202,-0.0281 0.0449,-0.0494 0.0407,-0.0351 0.0416,-0.0341 0.01,0.0106 -0.0335,0.047 -0.0546,0.0619 -0.0546,0.0387 z m 3.12963,-0.0564 c 0,-0.006 0.0202,-0.0281 0.0449,-0.0494 0.0407,-0.0351 0.0416,-0.0341 0.01,0.0106 -0.0335,0.047 -0.0546,0.0619 -0.0546,0.0387 z m 2.12437,-0.40366 c 0.0185,-0.008 0.0406,-0.007 0.0492,0.002 0.009,0.009 -0.007,0.016 -0.0337,0.0148 -0.0299,-0.001 -0.036,-0.008 -0.0155,-0.0171 z m -0.32227,-0.90312 c 0.0247,-0.007 0.0651,-0.007 0.0898,0 0.0247,0.007 0.004,0.0129 -0.0449,0.0129 -0.0494,0 -0.0696,-0.006 -0.0449,-0.0129 z m 0.30784,0 c 0.0247,-0.007 0.0651,-0.007 0.0898,0 0.0247,0.007 0.004,0.0129 -0.0449,0.0129 -0.0494,0 -0.0696,-0.006 -0.0449,-0.0129 z m -0.60124,-0.90276 c 0.0185,-0.008 0.0406,-0.007 0.0492,0.002 0.009,0.009 -0.007,0.016 -0.0337,0.0148 -0.0299,-0.001 -0.036,-0.008 -0.0155,-0.0171 z m 0.94915,0 c 0.0185,-0.008 0.0406,-0.007 0.0492,0.002 0.009,0.009 -0.007,0.016 -0.0337,0.0148 -0.0299,-0.001 -0.036,-0.008 -0.0155,-0.0171 z"
         id="path3718"
         inkscape:connector-curvature="0" />
      <path
         style="fill:#aeaeae;stroke-width:0.02690423"
         d="m 137.21457,161.29026 c 0.0185,-0.008 0.0406,-0.007 0.0492,0.002 0.009,0.009 -0.007,0.016 -0.0337,0.0148 -0.0299,-0.001 -0.036,-0.008 -0.0155,-0.0171 z m 0.79523,0 c 0.0185,-0.008 0.0406,-0.007 0.0492,0.002 0.009,0.009 -0.007,0.016 -0.0337,0.0148 -0.0299,-0.001 -0.036,-0.008 -0.0155,-0.0171 z m -0.66697,-0.90294 c 0.0185,-0.008 0.0406,-0.007 0.0492,0.002 0.009,0.009 -0.007,0.016 -0.0337,0.0148 -0.0299,-0.001 -0.036,-0.008 -0.0155,-0.0171 z m 0.53871,0 c 0.0185,-0.008 0.0406,-0.007 0.0492,0.002 0.009,0.009 -0.007,0.016 -0.0337,0.0148 -0.0299,-0.001 -0.036,-0.008 -0.0155,-0.0171 z m -2.25263,-1.2928 c -0.0176,-0.0233 -0.0262,-0.0423 -0.0191,-0.0423 0.007,0 0.0272,0.019 0.0448,0.0423 0.0176,0.0233 0.0262,0.0423 0.0191,0.0423 -0.007,0 -0.0272,-0.019 -0.0448,-0.0423 z m -0.11787,-0.13403 -0.0489,-0.0635 0.0577,0.0538 c 0.0317,0.0296 0.0577,0.0581 0.0577,0.0635 0,0.0226 -0.0206,0.006 -0.0666,-0.0538 z m 7.24932,0.0528 c 0,-0.006 0.0202,-0.0281 0.0449,-0.0494 0.0407,-0.0351 0.0416,-0.0341 0.01,0.0106 -0.0335,0.047 -0.0546,0.0619 -0.0546,0.0387 z m -10.44172,-0.17981 -0.11436,-0.13403 0.12185,0.1258 c 0.11326,0.11693 0.13363,0.14226 0.11436,0.14226 -0.004,0 -0.059,-0.0603 -0.12185,-0.13403 z m 10.65977,-0.0635 c 0.0551,-0.0621 0.10597,-0.11287 0.11302,-0.11287 0.007,0 -0.0323,0.0508 -0.0874,0.11287 -0.0551,0.0621 -0.10597,0.11287 -0.11302,0.11287 -0.007,0 0.0323,-0.0508 0.0874,-0.11287 z m -7.16993,-0.12697 c -0.0176,-0.0233 -0.0262,-0.0423 -0.0191,-0.0423 0.007,0 0.0272,0.019 0.0448,0.0423 0.0176,0.0233 0.0262,0.0423 0.0191,0.0423 -0.007,0 -0.0272,-0.019 -0.0448,-0.0423 z m -1.07539,-2.03397 c 0.001,-0.0329 0.007,-0.0396 0.0155,-0.0171 0.007,0.0204 0.006,0.0447 -0.002,0.0541 -0.009,0.009 -0.0146,-0.007 -0.0135,-0.037 z m 1.1267,-1.71887 c 0.0331,-0.0388 0.066,-0.0705 0.0731,-0.0705 0.007,0 -0.0143,0.0317 -0.0474,0.0705 -0.0331,0.0388 -0.066,0.0705 -0.0731,0.0705 -0.007,0 0.0143,-0.0317 0.0474,-0.0705 z m -3.57855,-0.0988 c 0.0551,-0.0621 0.10596,-0.11287 0.11302,-0.11287 0.007,0 -0.0323,0.0508 -0.0874,0.11287 -0.0551,0.0621 -0.10597,0.11287 -0.11302,0.11287 -0.007,0 0.0323,-0.0508 0.0874,-0.11287 z m 10.63197,-0.0494 -0.11437,-0.13403 0.12185,0.1258 c 0.067,0.0692 0.12185,0.1295 0.12185,0.13403 0,0.0212 -0.023,-0.001 -0.12933,-0.1258 z m -10.49088,-0.10236 c 0,-0.006 0.0202,-0.0281 0.0449,-0.0494 0.0407,-0.0351 0.0416,-0.0341 0.01,0.0106 -0.0335,0.047 -0.0546,0.0619 -0.0546,0.0387 z m 3.14245,-0.074 c 0.0255,-0.031 0.0522,-0.0564 0.0593,-0.0564 0.007,0 -0.008,0.0254 -0.0336,0.0564 -0.0255,0.031 -0.0522,0.0564 -0.0592,0.0564 -0.007,0 0.008,-0.0254 0.0336,-0.0564 z m 1.77805,-1.37368 c 0.0185,-0.008 0.0406,-0.007 0.0492,0.002 0.009,0.009 -0.007,0.016 -0.0337,0.0148 -0.0299,-0.001 -0.036,-0.008 -0.0155,-0.0171 z m 0.53871,0 c 0.0185,-0.008 0.0406,-0.007 0.0492,0.002 0.009,0.009 -0.007,0.016 -0.0337,0.0148 -0.0299,-0.001 -0.036,-0.008 -0.0155,-0.0171 z m -0.66697,-0.90294 c 0.0185,-0.008 0.0406,-0.007 0.0492,0.002 0.009,0.009 -0.007,0.016 -0.0337,0.0148 -0.0299,-0.001 -0.036,-0.008 -0.0155,-0.0171 z m 0.79523,0 c 0.0185,-0.008 0.0406,-0.007 0.0492,0.002 0.009,0.009 -0.007,0.016 -0.0337,0.0148 -0.0299,-0.001 -0.036,-0.008 -0.0155,-0.0171 z"
         id="path3716"
         inkscape:connector-curvature="0" />
      <path
         style="fill:#8f8f8f;stroke-width:0.02690423"
         d="m 137.29153,161.29026 c 0.0185,-0.008 0.0406,-0.007 0.0492,0.002 0.009,0.009 -0.007,0.016 -0.0337,0.0148 -0.0299,-0.001 -0.036,-0.008 -0.0155,-0.0171 z m 0.64132,0 c 0.0185,-0.008 0.0406,-0.007 0.0492,0.002 0.009,0.009 -0.007,0.016 -0.0337,0.0148 -0.0299,-0.001 -0.036,-0.008 -0.0155,-0.0171 z m -0.66697,-0.90294 c 0.0185,-0.008 0.0406,-0.007 0.0492,0.002 0.009,0.009 -0.007,0.016 -0.0337,0.0148 -0.0299,-0.001 -0.036,-0.008 -0.0155,-0.0171 z m 0.69262,0 c 0.0185,-0.008 0.0406,-0.007 0.0492,0.002 0.009,0.009 -0.007,0.016 -0.0337,0.0148 -0.0299,-0.001 -0.036,-0.008 -0.0155,-0.0171 z m -3.21948,-3.57837 c 1.5e-4,-0.0931 0.005,-0.1278 0.0106,-0.0771 0.006,0.0507 0.006,0.1269 -2.6e-4,0.1693 -0.006,0.0424 -0.0105,9.1e-4 -0.0104,-0.0922 z m 0.40749,0.0846 c 5.3e-4,-0.0466 0.006,-0.0622 0.0128,-0.0347 0.006,0.0275 0.006,0.0655 -9.5e-4,0.0847 -0.007,0.0191 -0.0123,-0.003 -0.0118,-0.0499 z m 0,-0.19752 c 5.3e-4,-0.0465 0.006,-0.0622 0.0128,-0.0347 0.006,0.0274 0.006,0.0656 -9.5e-4,0.0847 -0.007,0.0191 -0.0123,-0.003 -0.0118,-0.0499 z m 4.49544,-2.13742 -0.0754,-0.0917 0.0834,0.0829 c 0.0777,0.0773 0.0952,0.10053 0.0754,0.10053 -0.004,0 -0.0419,-0.0413 -0.0834,-0.0917 z m -2.37607,-1.36663 c 0.0185,-0.008 0.0406,-0.007 0.0492,0.002 0.009,0.009 -0.007,0.016 -0.0337,0.0148 -0.0299,-10e-4 -0.036,-0.008 -0.0155,-0.0171 z m 0.69262,0 c 0.0185,-0.008 0.0406,-0.007 0.0492,0.002 0.009,0.009 -0.007,0.016 -0.0337,0.0148 -0.0299,-10e-4 -0.036,-0.008 -0.0155,-0.0171 z m -0.66697,-0.90294 c 0.0185,-0.008 0.0406,-0.007 0.0492,0.002 0.009,0.009 -0.007,0.016 -0.0337,0.0148 -0.0299,-10e-4 -0.036,-0.008 -0.0155,-0.0171 z m 0.64132,0 c 0.0185,-0.008 0.0406,-0.007 0.0492,0.002 0.009,0.009 -0.007,0.016 -0.0337,0.0148 -0.0299,-10e-4 -0.036,-0.008 -0.0155,-0.0171 z"
         id="path3714"
         inkscape:connector-curvature="0" />
      <path
         style="fill:#6e6e6e;stroke-width:0.02690423"
         d="m 137.36688,161.29085 c 0.0176,-0.008 0.0465,-0.008 0.0641,0 0.0176,0.008 0.003,0.0142 -0.0321,0.0142 -0.0353,0 -0.0497,-0.006 -0.0321,-0.0142 z m 0.43561,1.7e-4 c 0.0174,-0.008 0.052,-0.008 0.077,-0.001 0.025,0.007 0.0108,0.0135 -0.0316,0.014 -0.0423,5.8e-4 -0.0627,-0.005 -0.0454,-0.013 z m -0.61357,-0.9037 c 0.0185,-0.008 0.0406,-0.007 0.0492,0.002 0.009,0.009 -0.007,0.016 -0.0337,0.0148 -0.0299,-0.001 -0.036,-0.008 -0.0155,-0.0171 z m 0.84654,0 c 0.0185,-0.008 0.0406,-0.007 0.0492,0.002 0.009,0.009 -0.007,0.016 -0.0337,0.0148 -0.0299,-0.001 -0.036,-0.008 -0.0155,-0.0171 z m 1.62093,-1.37746 c 0.0331,-0.0388 0.066,-0.0705 0.0731,-0.0705 0.007,0 -0.0143,0.0317 -0.0474,0.0705 -0.0331,0.0388 -0.066,0.0705 -0.0731,0.0705 -0.007,0 0.0143,-0.0317 0.0474,-0.0705 z m -6.7348,-0.78301 -0.1273,-0.14814 0.13468,0.14002 c 0.0741,0.077 0.13467,0.14368 0.13467,0.14814 0,0.0211 -0.0238,-0.002 -0.14205,-0.14002 z m 9.38985,0.007 c 0.0695,-0.0776 0.13211,-0.14108 0.13916,-0.14108 0.007,0 -0.044,0.0635 -0.11351,0.14108 -0.0695,0.0776 -0.1321,0.14109 -0.13916,0.14109 -0.007,0 0.044,-0.0635 0.11351,-0.14109 z m -1.82917,-1.31208 c 5.3e-4,-0.0466 0.006,-0.0622 0.0128,-0.0347 0.007,0.0275 0.006,0.0656 -9.5e-4,0.0847 -0.007,0.0191 -0.0123,-0.003 -0.0118,-0.0499 z m 0,-0.25395 c 5.3e-4,-0.0466 0.006,-0.0622 0.0128,-0.0347 0.007,0.0275 0.006,0.0656 -9.5e-4,0.0847 -0.007,0.0191 -0.0123,-0.003 -0.0118,-0.0499 z m -3.73747,-0.8324 c 0.0255,-0.031 0.0522,-0.0564 0.0593,-0.0564 0.007,0 -0.008,0.0254 -0.0336,0.0564 -0.0255,0.031 -0.0522,0.0564 -0.0593,0.0564 -0.007,0 0.008,-0.0254 0.0336,-0.0564 z m 5.57859,-0.47263 -0.14021,-0.16225 0.1475,0.15423 c 0.0811,0.0848 0.1475,0.15784 0.1475,0.16225 0,0.0209 -0.0245,-0.004 -0.15479,-0.15423 z m -9.40084,-0.007 c 0.0695,-0.0776 0.13211,-0.14108 0.13916,-0.14108 0.007,0 -0.044,0.0635 -0.1135,0.14108 -0.0695,0.0776 -0.13211,0.14109 -0.13917,0.14109 -0.007,0 0.044,-0.0635 0.11351,-0.14109 z m 4.49724,-1.71228 c 0.0185,-0.008 0.0406,-0.007 0.0492,0.002 0.009,0.009 -0.007,0.016 -0.0337,0.0148 -0.0299,-0.001 -0.036,-0.008 -0.0155,-0.0171 z m -0.23087,-0.45147 c 0.0185,-0.008 0.0406,-0.007 0.0492,0.002 0.009,0.009 -0.007,0.016 -0.0337,0.0148 -0.0299,-0.001 -0.036,-0.008 -0.0155,-0.0171 z m 0.84654,0 c 0.0185,-0.008 0.0406,-0.007 0.0492,0.002 0.009,0.009 -0.007,0.016 -0.0337,0.0148 -0.0299,-0.001 -0.036,-0.008 -0.0155,-0.0171 z m -0.66858,-0.90235 c 0.0176,-0.008 0.0465,-0.008 0.0641,0 0.0176,0.008 0.003,0.0142 -0.0321,0.0142 -0.0353,0 -0.0497,-0.006 -0.0321,-0.0142 z m 0.43561,1.8e-4 c 0.0174,-0.008 0.052,-0.008 0.077,-0.001 0.025,0.007 0.0108,0.0135 -0.0316,0.0141 -0.0423,5.7e-4 -0.0627,-0.005 -0.0454,-0.013 z"
         id="path3712"
         inkscape:connector-curvature="0" />
      <path
         style="fill:#4e4e4e;stroke-width:0.02690423"
         d="m 137.5342,161.28894 c 0.0532,-0.006 0.13403,-0.006 0.17957,2.3e-4 0.0455,0.006 0.002,0.0112 -0.0968,0.0111 -0.0988,-1.2e-4 -0.13603,-0.005 -0.0828,-0.0113 z m -0.0888,-1.35309 c 0.0185,-0.008 0.0406,-0.007 0.0492,0.002 0.009,0.009 -0.007,0.016 -0.0337,0.0148 -0.0299,-0.001 -0.036,-0.008 -0.0155,-0.0171 z m 0.30784,0 c 0.0185,-0.008 0.0406,-0.007 0.0492,0.002 0.009,0.009 -0.007,0.016 -0.0337,0.0148 -0.0299,-0.001 -0.036,-0.008 -0.0155,-0.0171 z m -0.15392,-0.42325 c 0.0185,-0.008 0.0406,-0.007 0.0492,0.002 0.009,0.009 -0.007,0.016 -0.0337,0.0148 -0.0299,-0.001 -0.036,-0.008 -0.0155,-0.0171 z m 5.00709,-0.3582 c 0,-0.006 0.0202,-0.0281 0.0449,-0.0494 0.0407,-0.0351 0.0416,-0.0341 0.01,0.0107 -0.0335,0.047 -0.0546,0.0619 -0.0546,0.0387 z m -10.03021,-0.0599 c -0.0176,-0.0233 -0.0262,-0.0423 -0.0191,-0.0423 0.007,0 0.0272,0.019 0.0448,0.0423 0.0176,0.0233 0.0262,0.0423 0.0191,0.0423 -0.007,0 -0.0272,-0.019 -0.0448,-0.0423 z m 6.72101,-0.29983 c 0,-0.008 0.0346,-0.0506 0.077,-0.0952 0.0423,-0.0446 0.0769,-0.0747 0.0769,-0.067 0,0.008 -0.0346,0.0506 -0.0769,0.0952 -0.0423,0.0446 -0.077,0.0747 -0.077,0.067 z m -7.18276,-0.20808 c -0.0176,-0.0233 -0.0262,-0.0423 -0.0191,-0.0423 0.007,0 0.0272,0.019 0.0448,0.0423 0.0176,0.0233 0.0262,0.0423 0.0191,0.0423 -0.007,0 -0.0272,-0.019 -0.0448,-0.0423 z m 11.00501,0.003 c 0,-0.006 0.0202,-0.0281 0.0449,-0.0494 0.0407,-0.0351 0.0416,-0.0341 0.01,0.0106 -0.0335,0.047 -0.0546,0.0619 -0.0546,0.0387 z m -10.01982,-0.1657 -0.0489,-0.0635 0.0577,0.0537 c 0.0542,0.0505 0.0694,0.0732 0.0489,0.0732 -0.005,0 -0.0308,-0.0286 -0.0577,-0.0635 z m 9.03219,0.007 c 0.0255,-0.031 0.0522,-0.0564 0.0593,-0.0564 0.007,0 -0.008,0.0254 -0.0336,0.0564 -0.0255,0.031 -0.0522,0.0564 -0.0592,0.0564 -0.007,0 0.008,-0.0254 0.0336,-0.0564 z m -9.39132,-0.40209 -0.0489,-0.0635 0.0577,0.0538 c 0.0542,0.0505 0.0694,0.0732 0.0489,0.0732 -0.005,0 -0.0309,-0.0286 -0.0577,-0.0635 z m 9.75046,0.007 c 0.0255,-0.031 0.0522,-0.0564 0.0593,-0.0564 0.007,0 -0.008,0.0254 -0.0336,0.0564 -0.0255,0.031 -0.0522,0.0564 -0.0593,0.0564 -0.007,0 0.008,-0.0254 0.0336,-0.0564 z m -2.00969,-1.24154 c 0,-0.0388 0.006,-0.0547 0.0129,-0.0353 0.007,0.0194 0.007,0.0512 0,0.0705 -0.007,0.0194 -0.0129,0.004 -0.0129,-0.0353 z m -7.73834,-1.24154 c 0.0255,-0.031 0.0522,-0.0564 0.0593,-0.0564 0.007,0 -0.008,0.0254 -0.0336,0.0564 -0.0255,0.031 -0.0522,0.0564 -0.0593,0.0564 -0.007,0 0.008,-0.0254 0.0336,-0.0564 z m 3.65551,0.0529 c 0,-0.008 0.0346,-0.0506 0.077,-0.0952 0.0423,-0.0446 0.077,-0.0747 0.077,-0.067 0,0.008 -0.0346,0.0506 -0.077,0.0952 -0.0423,0.0446 -0.077,0.0748 -0.077,0.067 z m 6.10535,-0.0388 c -0.0176,-0.0233 -0.0262,-0.0423 -0.0191,-0.0423 0.007,0 0.0272,0.019 0.0448,0.0423 0.0176,0.0233 0.0262,0.0423 0.0191,0.0423 -0.007,0 -0.0272,-0.019 -0.0448,-0.0423 z m -9.40172,-0.40914 c 0.0255,-0.031 0.0522,-0.0564 0.0593,-0.0564 0.007,0 -0.008,0.0254 -0.0336,0.0564 -0.0255,0.031 -0.0522,0.0564 -0.0592,0.0564 -0.007,0 0.008,-0.0254 0.0336,-0.0564 z m 9.02731,-0.007 -0.0489,-0.0635 0.0577,0.0538 c 0.0542,0.0505 0.0694,0.0732 0.0489,0.0732 -0.005,0 -0.0308,-0.0286 -0.0577,-0.0635 z m -10.06624,-0.0882 c 0,-0.006 0.0202,-0.0281 0.0449,-0.0494 0.0407,-0.0351 0.0416,-0.0341 0.01,0.0107 -0.0335,0.047 -0.0546,0.0619 -0.0546,0.0387 z m 11.05631,-0.0599 c -0.0176,-0.0233 -0.0262,-0.0423 -0.0191,-0.0423 0.007,0 0.0272,0.0191 0.0448,0.0423 0.0176,0.0233 0.0262,0.0423 0.0191,0.0423 -0.007,0 -0.0272,-0.019 -0.0448,-0.0423 z m -5.56022,-0.005 c 0.0247,-0.007 0.0651,-0.007 0.0898,0 0.0247,0.007 0.004,0.0129 -0.0449,0.0129 -0.0494,0 -0.0696,-0.006 -0.0449,-0.0129 z m 5.10886,-0.4955 -0.0489,-0.0635 0.0577,0.0538 c 0.0542,0.0505 0.0694,0.0732 0.0489,0.0732 -0.005,0 -0.0308,-0.0286 -0.0577,-0.0635 z m -10.0919,-0.004 c 0,-0.006 0.0202,-0.0281 0.0449,-0.0494 0.0407,-0.0351 0.0416,-0.0341 0.01,0.0106 -0.0335,0.047 -0.0546,0.0619 -0.0546,0.0387 z m 4.92051,-0.85513 c 0.0185,-0.008 0.0406,-0.007 0.0492,0.002 0.009,0.009 -0.007,0.016 -0.0337,0.0148 -0.0299,-0.001 -0.036,-0.008 -0.0155,-0.0171 z m 0.12666,-6.4e-4 c 0.0317,-0.007 0.0837,-0.007 0.11544,0 0.0317,0.007 0.006,0.0122 -0.0577,0.0122 -0.0635,0 -0.0895,-0.006 -0.0577,-0.0122 z m -0.0892,-1.35509 c 0.0532,-0.006 0.13403,-0.006 0.17957,2.3e-4 0.0455,0.006 0.002,0.0112 -0.0968,0.0111 -0.0988,-1.3e-4 -0.13603,-0.005 -0.0828,-0.0113 z"
         id="path3710"
         inkscape:connector-curvature="0" />
      <path
         style="fill:#333333;stroke-width:0.02832507"
         d="m 179.78162,212.9075 c -0.79012,-0.0836 -1.63157,-0.34874 -2.38188,-0.75057 -1.03795,-0.55587 -2.02584,-1.45238 -2.75889,-2.50369 -0.41841,-0.60008 -0.85613,-1.46561 -0.85609,-1.69279 8e-5,-0.47959 0.98642,-2.03304 1.81448,-2.85775 1.63667,-1.63005 3.69101,-2.37277 5.69048,-2.05731 1.31194,0.20698 2.60812,0.87607 3.71665,1.91853 0.3114,0.29285 0.82001,0.89003 1.09995,1.29151 0.41841,0.60007 0.85613,1.4656 0.85609,1.69278 -7e-5,0.47959 -0.98642,2.03304 -1.81448,2.85775 -1.54366,1.53742 -3.49079,2.29995 -5.36631,2.10154 z m 1.46705,-1.04239 c 1.1423,-0.20806 2.19439,-0.74061 3.12165,-1.58012 0.57713,-0.52251 1.23415,-1.38137 1.59811,-2.08907 l 0.12425,-0.24159 -0.12425,-0.24159 c -0.36396,-0.7077 -1.02098,-1.56656 -1.59811,-2.08907 -2.2067,-1.99786 -5.0171,-2.19302 -7.3629,-0.5113 -0.87562,0.62774 -1.72214,1.61543 -2.22868,2.60037 l -0.12425,0.24159 0.12425,0.24159 c 0.36397,0.7077 1.02098,1.56656 1.59811,2.08907 1.01342,0.91751 2.20709,1.48248 3.43897,1.62767 0.32339,0.0381 1.10489,0.0122 1.43285,-0.0476 z m -1.37697,-0.46898 c -0.42156,-0.09 -0.89372,-0.33543 -1.2275,-0.63818 -0.0902,-0.0818 -0.25633,-0.26563 -0.36922,-0.40851 -0.32046,-0.40561 -0.5147,-0.79788 -0.65346,-1.31966 -0.10616,-0.39914 -0.13649,-0.63337 -0.13725,-1.05986 -0.002,-0.97471 0.30086,-1.84483 0.87306,-2.51041 0.34289,-0.39885 0.7064,-0.66554 1.1282,-0.8277 1.54937,-0.59565 3.20024,0.47472 3.65342,2.36877 0.4763,1.9907 -0.61518,4.06541 -2.31437,4.39921 -0.28594,0.0562 -0.67957,0.0547 -0.95288,-0.004 z m 1.10672,-0.5398 c 0.27623,-0.0865 0.6892,-0.33761 0.9191,-0.55888 1.1615,-1.1179 1.26136,-3.18248 0.21523,-4.44953 -0.90745,-1.09907 -2.33108,-1.17945 -3.33153,-0.18812 -0.20331,0.20147 -0.33809,0.38844 -0.50427,0.69958 -0.21599,0.40438 -0.33308,0.82017 -0.37227,1.32191 -0.11795,1.50996 0.71633,2.87583 1.95547,3.20147 0.31422,0.0826 0.80736,0.0709 1.11827,-0.0264 z m -2.18887,-2.72913 c -0.0757,-0.0917 -0.0826,-0.25777 -0.0246,-0.5937 0.14503,-0.8395 0.75856,-1.48952 1.47415,-1.5618 0.19928,-0.0201 0.20951,-0.0179 0.2737,0.0599 0.1442,0.17466 0.0431,0.4265 -0.17125,0.4265 -0.39564,0 -0.85561,0.34085 -1.04281,0.77274 -0.10051,0.2319 -0.12952,0.3469 -0.15885,0.62984 -0.0186,0.17958 -0.0371,0.24595 -0.0802,0.2882 -0.0802,0.0786 -0.19503,0.0694 -0.2702,-0.0216 z"
         id="path3753"
         inkscape:connector-curvature="0" />
    </g>
  </g>
</svg>
